<?xml version="1.0" encoding="UTF-8" standalone="no"?>
<!-- Created with Inkscape (http://www.inkscape.org/) -->

<svg
   xmlns:dc="http://purl.org/dc/elements/1.1/"
   xmlns:cc="http://creativecommons.org/ns#"
   xmlns:rdf="http://www.w3.org/1999/02/22-rdf-syntax-ns#"
   xmlns:svg="http://www.w3.org/2000/svg"
   xmlns="http://www.w3.org/2000/svg"
   xmlns:sodipodi="http://sodipodi.sourceforge.net/DTD/sodipodi-0.dtd"
   xmlns:inkscape="http://www.inkscape.org/namespaces/inkscape"
   version="1.1"
   width="512"
   height="512"
   id="svg3234"
   inkscape:version="0.91 r13725"
   sodipodi:docname="MFO.svg"
   inkscape:export-filename="/Users/stussak/Desktop/IMAGINARY/SNAPSHOTS/snapshot-slider/build/icons-src/512x512.png"
   inkscape:export-xdpi="90"
   inkscape:export-ydpi="90">
  <sodipodi:namedview
     pagecolor="#ffffff"
     bordercolor="#666666"
     borderopacity="1"
     objecttolerance="10"
     gridtolerance="10"
     guidetolerance="10"
     inkscape:pageopacity="0"
     inkscape:pageshadow="2"
     inkscape:window-width="1680"
     inkscape:window-height="1001"
     id="namedview4560"
     showgrid="false"
     fit-margin-top="0"
     fit-margin-left="0"
     fit-margin-right="0"
     fit-margin-bottom="0"
     inkscape:zoom="0.78027344"
     inkscape:cx="280.99124"
     inkscape:cy="281.63204"
     inkscape:window-x="5"
     inkscape:window-y="0"
     inkscape:window-maximized="0"
     inkscape:current-layer="g5027" />
  <defs
     id="defs3236">
    <clipPath
       id="clipPath3151">
      <path
         d="m 68.011,203.705 7.411,-12.753 -10.261,-5.962 6.129,-10.548 10.261,5.962 15.822,9.194 -13.54,23.301 -15.822,-9.194 z"
         id="path3153"
         inkscape:connector-curvature="0" />
    </clipPath>
    <clipPath
       id="clipPath3163">
      <path
         d="m 56.726,197.237 15.845,-9.154 7.379,12.773 -0.001,0 6.103,10.563 -6.102,-10.563 10.275,-5.937 6.102,10.564 -10.275,5.936 -15.846,9.153 -13.48,-23.335 z"
         id="path3165"
         inkscape:connector-curvature="0" />
    </clipPath>
    <clipPath
       id="clipPath3175">
      <path
         d="m 56.697,212.011 0,-30.022 26.945,0 0,18.212 -14.75,0 0,11.81 -12.195,0 z"
         id="path3177"
         inkscape:connector-curvature="0" />
    </clipPath>
  </defs>
  <metadata
     id="metadata3239">
    <rdf:RDF>
      <cc:Work
         rdf:about="">
        <dc:format>image/svg+xml</dc:format>
        <dc:type
           rdf:resource="http://purl.org/dc/dcmitype/StillImage" />
        <dc:title />
      </cc:Work>
    </rdf:RDF>
  </metadata>
  <g
     id="g5027"
     transform="matrix(0.96692699,0,0,0.96692699,6.1335609e-7,14.295538)">
    <g
       id="g4152"
       transform="matrix(0.93712531,0,0,0.93712531,16.689536,15.712548)">
      <path
         sodipodi:type="inkscape:offset"
         inkscape:radius="19.897745"
         inkscape:original="M 307.71484 45.984375 C 306.1887 45.970095 304.66187 45.981678 303.13477 46.017578 C 249.93581 46.348468 198.60477 78.249281 174.25977 125.48633 C 136.2099 191.58176 97.47096 257.30476 60.191406 323.82812 C 34.98306 375.68726 44.204222 441.80325 82.359375 484.98633 C 111.87721 519.1884 157.49332 538.42143 202.58203 536.08789 C 278.17662 535.83548 353.79424 536.66779 429.375 535.64062 C 486.55827 531.55733 538.9348 490.97688 557.54688 436.80469 C 572.82326 393.91711 566.74644 344.33702 541.99023 306.17383 C 503.98291 240.85286 466.93066 174.95683 428.22852 110.05273 C 401.56639 70.843869 355.0254 46.427184 307.71484 45.984375 z M 305.03125 85.984375 C 305.86384 85.979675 306.69719 85.985973 307.5293 86.001953 C 347.75469 86.093993 386.33259 111.11414 403.90234 147.28711 L 460.4043 245.15234 C 427.63919 234.99894 392.89544 239.96198 359.22266 238.81641 L 206.7832 238.81641 C 187.42858 197.14913 198.73344 143.56715 233.75781 113.50977 C 253.28567 96.158493 279.22101 86.130105 305.03125 85.984375 z M 161.12695 228.40039 L 161.34766 229.375 L 161.42969 229.74023 C 169.32707 262.61799 190.59209 289.84097 206.23242 319.19141 C 231.63542 363.19168 257.0387 407.19097 282.44141 451.19141 C 255.57866 489.29527 202.98387 506.01129 159.09375 490.09375 C 119.94917 476.75897 89.882643 439.40362 86.46875 397.89844 C 83.742859 371.53194 91.937515 344.75701 106.63281 322.78711 L 161.12695 228.40039 z M 346.81445 278.87305 C 358.92352 278.88105 370.80569 278.91213 382.52148 278.95703 C 357.28606 322.40763 331.53116 367.52508 305.9082 411.58008 C 280.64288 367.37658 254.6419 323.24519 229.33398 278.91211 C 266.13053 278.96241 307.03349 278.84645 346.81445 278.87305 z M 428.56055 279.47461 L 429.55469 279.57812 L 430.35742 279.66016 C 472.52947 284.19447 510.8737 316.61667 521.86719 358.11719 C 533.86477 400.05083 518.09805 447.94623 483.06445 473.89453 C 460.79856 491.07943 432.00445 497.90029 404.25391 495.94727 L 296.25586 495.94727 C 321.4418 472.65969 334.50141 440.0823 352.33594 411.5 C 377.74394 367.49115 403.15356 323.48405 428.56055 279.47461 z "
         style="color:#000000;font-style:normal;font-variant:normal;font-weight:normal;font-stretch:normal;font-size:medium;line-height:normal;font-family:sans-serif;text-indent:0;text-align:start;text-decoration:none;text-decoration-line:none;text-decoration-style:solid;text-decoration-color:#000000;letter-spacing:normal;word-spacing:normal;text-transform:none;direction:ltr;block-progression:tb;writing-mode:lr-tb;baseline-shift:baseline;text-anchor:start;white-space:normal;clip-rule:nonzero;display:inline;overflow:visible;visibility:visible;opacity:1;isolation:auto;mix-blend-mode:normal;color-interpolation:sRGB;color-interpolation-filters:linearRGB;solid-color:#000000;solid-opacity:1;fill:#ffffff;fill-opacity:1;fill-rule:nonzero;stroke:#808080;stroke-width:5.17102146;stroke-linecap:butt;stroke-linejoin:miter;stroke-miterlimit:10;stroke-dasharray:none;stroke-dashoffset:0;stroke-opacity:0.87280704;color-rendering:auto;image-rendering:auto;shape-rendering:auto;text-rendering:auto;enable-background:accumulate"
         id="path4997"
         d="m 307.90039,26.087891 c -1.64966,-0.01544 -3.29142,-3.34e-4 -4.92969,0.03516 -61.05801,0.395684 -118.51316,36.141744 -146.39843,90.248043 l 0.44335,-0.8125 C 119.0337,181.53599 80.255077,247.32563 42.833984,314.10156 a 19.899735,19.899735 0 0 0 -0.539062,1.02735 c -28.93649,59.52875 -18.627229,133.42219 25.097656,182.96484 33.733042,39.01537 84.850832,60.52375 136.218752,57.86523 l -0.96289,0.0273 c 75.40423,-0.25178 151.08898,0.58238 226.99609,-0.44922 a 19.899735,19.899735 0 0 0 1.14844,-0.0488 c 65.6301,-4.68645 124.16019,-50.03983 145.53515,-112.12305 17.41122,-48.99719 10.56274,-104.53632 -17.64453,-148.01953 l 0.50586,0.82032 C 521.28053,231.01416 484.19357,165.05568 445.31836,99.861328 a 19.899735,19.899735 0 0 0 -0.63672,-0.998047 C 414.12498,53.927196 361.934,26.593625 307.90039,26.087891 Z m -2.75586,79.792969 c 1.85038,0.002 1.5561,0.0119 2.33985,0.0195 32.00364,0.0732 64.37543,20.95992 78.51953,50.08008 a 19.899735,19.899735 0 0 0 0.66601,1.25586 l 35.58203,61.63086 c -22.22832,-1.1171 -43.33073,0.70966 -62.35351,0.0625 a 19.899735,19.899735 0 0 0 -0.67578,-0.0117 l -138.57813,0 c -8.77804,-31.36137 1.41674,-69.1496 26.07227,-90.30859 a 19.899735,19.899735 0 0 0 0.25781,-0.22461 c 15.83432,-14.06942 37.43826,-22.38686 58.16992,-22.50391 z M 157.43945,274.58398 c 10.14482,19.80919 22.27048,37.14698 31.23243,53.96485 A 19.899735,19.899735 0 0 0 189,329.14062 c 23.09068,39.99514 46.18117,79.9896 69.27148,119.98438 -23.12929,23.6716 -61.34334,33.52494 -92.39453,22.26367 a 19.899735,19.899735 0 0 0 -0.36718,-0.1289 c -31.35173,-10.68011 -56.49953,-42.02754 -59.21094,-74.99219 a 19.899735,19.899735 0 0 0 -0.0371,-0.41602 c -2.1647,-20.93831 4.46794,-43.40047 16.91016,-62.00195 a 19.899735,19.899735 0 0 0 0.69335,-1.11328 l 33.57422,-58.15235 z m 189.36133,24.1875 c 0.43832,2.9e-4 0.85523,0.004 1.29297,0.004 -14.01966,24.28565 -28.07288,48.60045 -42.17773,73.01367 -14.06959,-24.35609 -28.10074,-48.68895 -42.12891,-72.99023 27.40163,-0.0146 54.94081,-0.0461 83.01367,-0.0274 z m 92.0586,2.66211 c 29.40567,7.54086 55.98632,32.38289 63.77343,61.7793 a 19.899735,19.899735 0 0 0 0.10352,0.37695 c 9.62726,33.64898 -3.59811,73.63682 -31.51563,94.31446 a 19.899735,19.899735 0 0 0 -0.31445,0.23828 c -17.71343,13.67129 -41.70324,19.61266 -65.25586,17.95508 a 19.899735,19.899735 0 0 0 -1.39648,-0.0488 l -66.15039,0 c 12.07948,-18.68996 21.04255,-37.8759 31.11328,-54.01563 a 19.899735,19.899735 0 0 0 0.35156,-0.58398 c 23.09649,-40.00512 46.19442,-80.00925 69.29102,-120.01563 z"
         transform="translate(-41.199461,-41.154353)" />
      <path
         style="color:#000000;font-style:normal;font-variant:normal;font-weight:normal;font-stretch:normal;font-size:medium;line-height:normal;font-family:sans-serif;text-indent:0;text-align:start;text-decoration:none;text-decoration-line:none;text-decoration-style:solid;text-decoration-color:#000000;letter-spacing:normal;word-spacing:normal;text-transform:none;direction:ltr;block-progression:tb;writing-mode:lr-tb;baseline-shift:baseline;text-anchor:start;white-space:normal;clip-rule:nonzero;display:inline;overflow:visible;visibility:visible;opacity:1;isolation:auto;mix-blend-mode:normal;color-interpolation:sRGB;color-interpolation-filters:linearRGB;solid-color:#000000;solid-opacity:1;fill:#000000;fill-opacity:1;fill-rule:nonzero;stroke:none;stroke-width:2.21799994;stroke-linecap:butt;stroke-linejoin:miter;stroke-miterlimit:10;stroke-dasharray:none;stroke-dashoffset:0;stroke-opacity:1;color-rendering:auto;image-rendering:auto;shape-rendering:auto;text-rendering:auto;enable-background:accumulate"
         d="M 264.27926,9.3134813 C 239.8558,9.3345302 215.13485,15.544077 192.54235,28.590301 169.80739,41.715696 151.99647,60.165093 139.76258,81.469491 L 139.7021,81.43436 28.575346,273.9141 c -39.757939,68.86615 -16.017334,157.45356 52.851901,197.19707 17.213335,9.93998 35.654443,15.92829 54.263203,18.21833 5.96496,0.73406 11.94535,1.06587 17.9084,1.05263 l 0,0.0916 222.25361,0 c 79.51654,0 144.37245,-64.8559 144.37245,-144.37245 0,-26.24695 -7.07232,-50.89307 -19.40353,-72.13847 l 0.0722,-0.0429 L 389.76669,81.442204 C 363.05424,35.172608 314.28919,9.2703755 264.27926,9.3134813 Z m 0.18324,31.9493457 c 38.85946,-0.09765 76.62653,20.053209 97.50886,56.224224 l 65.78757,113.949409 c -16.12201,-6.24518 -33.6246,-9.68031 -51.90647,-9.68031 l -203.24385,0 18.62965,32.06045 184.6142,0 c 40.09142,0 75.18168,20.86043 95.04881,52.34314 l 2.19688,3.80507 0.078,-0.0448 c 9.53497,16.51169 14.98832,35.69366 14.98832,56.18135 0,62.16091 -50.1511,112.2847 -112.31199,112.2847 l -131.56737,0 C 257.75396,447.54795 269.484,434.11514 278.62432,418.2866 312.52615,359.55757 346.4301,300.83679 380.33786,242.11101 l -37.03512,0 c -30.82526,53.37636 -61.65853,106.74871 -92.47374,160.13072 -20.13776,34.8731 -55.96832,54.84914 -93.34121,56.1443 l -3.88889,0 0,0.074 C 134.54143,458.45807 115.2117,453.58698 97.472094,443.3431 43.639032,412.27679 25.289898,343.79511 56.370694,289.95896 L 122.14853,176.02514 c 2.6536,17.08418 8.43131,33.95804 17.57117,49.78951 37.048,64.15807 64.68327,112.03208 101.72523,176.19509 l 18.51853,-32.06241 C 222.92156,305.78444 204.53694,273.92992 167.48775,209.7698 147.40619,174.98581 147.96412,134.09792 165.39028,101.12838 l 2.10722,-3.649124 -0.0722,-0.04092 c 9.53411,-16.502872 23.41913,-30.809412 41.16183,-41.052665 17.65969,-10.197743 36.89741,-15.075137 55.8753,-15.122824 z"
         id="path3157"
         inkscape:connector-curvature="0" />
    </g>
  </g>
</svg>
